<svg width="47" height="50" viewBox="0 0 47 50" fill="none" xmlns="http://www.w3.org/2000/svg">
<g id="notepad">
<path id="Shape" d="M10.8333 15.8333H18.3333C18.7942 15.8333 19.1667 15.4608 19.1667 15C19.1667 14.5392 18.7942 14.1667 18.3333 14.1667H10.8333C10.3725 14.1667 10 14.5392 10 15C10 15.4608 10.3725 15.8333 10.8333 15.8333Z" fill="white"/>
<path id="Shape_2" d="M10.8333 21.6667H15C15.4608 21.6667 15.8333 21.2942 15.8333 20.8333C15.8333 20.3725 15.4608 20 15 20H10.8333C10.3725 20 10 20.3725 10 20.8333C10 21.2942 10.3725 21.6667 10.8333 21.6667Z" fill="white"/>
<path id="Shape_3" d="M21.6668 21.6667H27.5002C27.961 21.6667 28.3335 21.2942 28.3335 20.8333C28.3335 20.3725 27.961 20 27.5002 20H21.6668C21.206 20 20.8335 20.3725 20.8335 20.8333C20.8335 21.2942 21.206 21.6667 21.6668 21.6667Z" fill="white"/>
<path id="Shape_4" d="M18.925 21.425C19.075 21.2667 19.1667 21.05 19.1667 20.8333C19.1667 20.6158 19.075 20.3992 18.925 20.2417C18.6083 19.9333 18.0583 19.9333 17.7417 20.2417C17.5908 20.3992 17.5 20.6158 17.5 20.8333C17.5 21.05 17.5908 21.2667 17.7417 21.425C17.8992 21.5825 18.1075 21.6667 18.3333 21.6667C18.55 21.6667 18.7667 21.575 18.925 21.425Z" fill="white"/>
<path id="Shape_5" d="M30.8333 21.6667C31.0583 21.6667 31.2667 21.575 31.425 21.425C31.575 21.2667 31.6667 21.05 31.6667 20.8333C31.6667 20.6158 31.575 20.3992 31.425 20.2417C31.1083 19.9333 30.5583 19.9333 30.2417 20.2417C30.0908 20.3992 30 20.6158 30 20.8333C30 21.05 30.0908 21.2667 30.2417 21.425C30.3992 21.5825 30.6075 21.6667 30.8333 21.6667Z" fill="white"/>
<path id="Shape_6" d="M13.3335 26.6667C13.3335 27.1275 13.706 27.5 14.1668 27.5H20.0002C20.461 27.5 20.8335 27.1275 20.8335 26.6667C20.8335 26.2058 20.461 25.8333 20.0002 25.8333H14.1668C13.706 25.8333 13.3335 26.2058 13.3335 26.6667Z" fill="white"/>
<path id="Shape_7" d="M11.425 27.2583C11.5825 27.1 11.6667 26.8833 11.6667 26.6667C11.6667 26.4492 11.5825 26.2325 11.425 26.075C11.1083 25.7667 10.5583 25.7667 10.2417 26.075C10.0833 26.2325 10 26.4408 10 26.6667C10 26.8833 10.0908 27.1 10.2417 27.2583C10.3992 27.4083 10.6167 27.5 10.8333 27.5C11.05 27.5 11.2667 27.4083 11.425 27.2583Z" fill="white"/>
<path id="Shape_8" d="M15.4377 30.9475C13.6127 31.8975 12.9985 33.715 12.7743 35.5992C12.4293 35.31 12.0843 35.0217 11.7402 34.7325C10.9235 34.0483 9.73849 35.2208 10.5618 35.9117C11.341 36.5642 12.121 37.2175 12.9002 37.8708C13.4485 38.33 14.2968 38.04 14.3227 37.2817C14.3835 35.4767 14.4685 33.33 16.2793 32.3875C17.231 31.8908 16.3893 30.4517 15.4377 30.9475Z" fill="white"/>
<path id="Shape_9" d="M20.979 34.2708C19.8248 34.5383 18.5115 36.0067 17.699 34.3592C17.2248 33.3975 15.7865 34.2408 16.2598 35.2C16.6915 36.0742 17.5098 36.6867 18.484 36.81C18.979 36.8725 19.4265 36.8025 19.8907 36.6217C20.2315 36.4892 21.5048 35.5317 21.7798 36.0242C22.3032 36.9608 23.7432 36.1217 23.219 35.1833C22.7715 34.3817 21.8657 34.065 20.979 34.2708Z" fill="white"/>
<path id="Shape_10" fill-rule="evenodd" clip-rule="evenodd" d="M44.1792 0H40.8217C39.7392 0 38.825 0.699167 38.4842 1.66667H30H25V0.833333C25 0.3725 24.6275 0 24.1667 0H16.6667C16.2058 0 15.8333 0.3725 15.8333 0.833333V1.66667H10.8333H0V50H40.8333V46.2633L41.6667 47.7217V49.1667C41.6667 49.6275 42.0392 50 42.5 50C42.9608 50 43.3333 49.6275 43.3333 49.1667V47.7217L46.6667 41.8883V10.8333V5.83333V2.4875C46.6667 1.11583 45.5508 0 44.1792 0ZM40 7.5H45V9.16667H40V7.5ZM23.3333 2.5V1.66667H17.5V2.5V4.16667H23.3333V2.5ZM15.8333 3.33333V5V5.83333H16.6667H24.1667H25V5V3.33333H29.1667V5.83333V6.66667H11.6667V5.83333V3.33333H15.8333ZM30 8.33333H10.8333H10V7.5H5.83333V44.1667H35V7.5H30.8333V8.33333H30ZM39.1667 48.3333H1.66667V3.33333H10V5.83333H4.16667V45.8333H36.6667V5.83333H30.8333V3.33333H38.3333V5.83333V10.8333V41.8883L39.1667 43.3467V48.3333ZM42.5 45.82L44.3975 42.5H40.6025L40.8333 42.9033L42.5 45.82ZM45 40.8333H40V10.8333H45V40.8333ZM40 2.4875V5.83333H45V2.4875C45 2.035 44.6317 1.66667 44.1783 1.66667H40.8208C40.3683 1.66667 40 2.035 40 2.4875Z" fill="white"/>
</g>
</svg>
