<svg width="42" height="41" viewBox="0 0 42 41" fill="none" xmlns="http://www.w3.org/2000/svg">
<path d="M5.29693 5.45427H5.39693V5.35427V3.10055C5.39693 1.45776 6.7477 0.1 8.38983 0.1H38.0171C39.6592 0.1 41.01 1.45776 41.01 3.10055V24.1392C41.01 25.7819 39.6604 27.1378 38.0171 27.1378H35.8207H35.7207V27.2378V29.4915C35.7207 31.1338 34.3648 32.4844 32.7221 32.4844H15.0077H14.9693L14.9407 32.5101L6.86262 39.7854C6.29875 40.2913 5.40182 39.8944 5.39693 39.137V32.5844V32.4844H5.29693H3.10055C1.45778 32.4844 0.1 31.1337 0.1 29.4915V8.44718C0.1 6.80504 1.45778 5.45427 3.10055 5.45427H5.29693ZM35.7207 25.2804V25.3804H35.8207H38.0171C38.7188 25.3804 39.2526 24.8411 39.2526 24.1392V3.10055C39.2526 2.39874 38.72 1.85935 38.0171 1.85935H8.38983C7.68695 1.85935 7.15437 2.39874 7.15437 3.10055V5.35427V5.45427H7.25437H32.7221C34.3648 5.45427 35.7207 6.80496 35.7207 8.44718V25.2804ZM14.631 30.7327H14.6311H32.7221C33.4243 30.7327 33.9633 30.194 33.9633 29.4915V29.4504V29.4093V29.3682V29.3271V29.286V29.2449V29.2038V29.1627V29.1216V29.0805V29.0394V28.9983V28.9572V28.9161V28.875V28.8339V28.7928V28.7517V28.7106V28.6695V28.6284V28.5873V28.5462V28.5051V28.464V28.4229V28.3818V28.3407V28.2996V28.2585V28.2174V28.1763V28.1352V28.0941V28.053V28.0119V27.9708V27.9297V27.8886V27.8475V27.8063V27.7652V27.7241V27.683V27.6419V27.6008V27.5597V27.5186V27.4775V27.4364V27.3953V27.3542V27.3131V27.272V27.2309V27.1898V27.1487V27.1076V27.0665V27.0254V26.9843V26.9432V26.9021V26.861V26.8199V26.7788V26.7377V26.6966V26.6555V26.6144V26.5733V26.5322V26.4911V26.45V26.4089V26.3678V26.3267V26.2856V26.2445V26.2034V26.1623V26.1212V26.0801V26.039V25.9978V25.9567V25.9156V25.8745V25.8334V25.7923V25.7512V25.7101V25.669V25.6279V25.5868V25.5457V25.5046V25.4635V25.4224V25.3813V25.3402V25.2991V25.258V25.2169V25.1758V25.1347V25.0936V25.0525V25.0114V24.9703V24.9292V24.8881V24.847V24.8059V24.7648V24.7237V24.6826V24.6415V24.6004V24.5593V24.5182V24.4771V24.436V24.3949V24.3538V24.3127V24.2716V24.2305V24.1894V24.1482V24.1071V24.066V24.0249V23.9838V23.9427V23.9016V23.8605V23.8194V23.7783V23.7372V23.6961V23.655V23.6139V23.5728V23.5317V23.4906V23.4495V23.4084V23.3673V23.3262V23.2851V23.244V23.2029V23.1618V23.1207V23.0796V23.0385V22.9974V22.9563V22.9152V22.8741V22.833V22.7919V22.7508V22.7097V22.6686V22.6275V22.5864V22.5453V22.5042V22.4631V22.422V22.3808V22.3397V22.2986V22.2575V22.2164V22.1753V22.1342V22.0931V22.052V22.0109V21.9698V21.9287V21.8876V21.8465V21.8054V21.7643V21.7232V21.6821V21.641V21.5999V21.5588V21.5177V21.4766V21.4355V21.3944V21.3533V21.3122V21.2711V21.23V21.1889V21.1478V21.1067V21.0656V21.0245V20.9834V20.9423V20.9012V20.8601V20.819V20.7779V20.7368V20.6957V20.6546V20.6135V20.5724V20.5312V20.4901V20.449V20.4079V20.3668V20.3257V20.2846V20.2435V20.2024V20.1613V20.1202V20.0791V20.038V19.9969V19.9558V19.9147V19.8736V19.8325V19.7914V19.7503V19.7092V19.6681V19.627V19.5859V19.5448V19.5037V19.4626V19.4215V19.3804V19.3393V19.2982V19.2571V19.216V19.1749V19.1338V19.0927V19.0516V19.0105V18.9694V18.9283V18.8872V18.8461V18.805V18.7639V18.7227V18.6816V18.6405V18.5994V18.5583V18.5172V18.4761V18.435V18.3939V18.3528V18.3117V18.2706V18.2295V18.1884V18.1473V18.1062V18.0651V18.024V17.9829V17.9418V17.9007V17.8596V17.8185V17.7774V17.7363V17.6952V17.6541V17.613V17.5719V17.5308V17.4897V17.4486V17.4075V17.3664V17.3253V17.2842V17.2431V17.202V17.1609V17.1198V17.0787V17.0376V16.9965V16.9554V16.9142V16.8731V16.832V16.7909V16.7498V16.7087V16.6676V16.6265V16.5854V16.5443V16.5032V16.4621V16.421V16.3799V16.3388V16.2977V16.2566V16.2155V16.1744V16.1333V16.0922V16.0511V16.01V15.9689V15.9278V15.8867V15.8456V15.8045V15.7634V15.7223V15.6812V15.6401V15.599V15.5579V15.5168V15.4757V15.4346V15.3935V15.3524V15.3113V15.2702V15.2291V15.188V15.1469V15.1057V15.0646V15.0235V14.9824V14.9413V14.9002V14.8591V14.818V14.7769V14.7358V14.6947V14.6536V14.6125V14.5714V14.5303V14.4892V14.4481V14.407V14.3659V14.3248V14.2837V14.2426V14.2015V14.1604V14.1193V14.0782V14.0371V13.996V13.9549V13.9138V13.8727V13.8316V13.7905V13.7494V13.7083V13.6672V13.6261V13.585V13.5439V13.5028V13.4617V13.4206V13.3795V13.3384V13.2972V13.2561V13.215V13.1739V13.1328V13.0917V13.0506V13.0095V12.9684V12.9273V12.8862V12.8451V12.804V12.7629V12.7218V12.6807V12.6396V12.5985V12.5574V12.5163V12.4752V12.4341V12.393V12.3519V12.3108V12.2697V12.2286V12.1875V12.1464V12.1053V12.0642V12.0231V11.982V11.9409V11.8998V11.8587V11.8176V11.7765V11.7354V11.6943V11.6532V11.6121V11.571V11.5299V11.4888V11.4476V11.4065V11.3654V11.3243V11.2832V11.2421V11.201V11.1599V11.1188V11.0777V11.0366V10.9955V10.9544V10.9133V10.8722V10.8311V10.79V10.7489V10.7078V10.6667V10.6256V10.5845V10.5434V10.5023V10.4612V10.4201V10.379V10.3379V10.2968V10.2557V10.2146V10.1735V10.1324V10.0913V10.0502V10.0091V9.96797V9.92686V9.88576V9.84466V9.80356V9.76245V9.72135V9.68025V9.63915V9.59805V9.55694V9.51584V9.47474V9.43364V9.39253V9.35143V9.31033V9.26923V9.22812V9.18702V9.14592V9.10482V9.06372V9.02261V8.98151V8.94041V8.89931V8.8582V8.8171V8.776V8.7349V8.6938V8.65269V8.61159V8.57049V8.52939V8.48828V8.44718C33.9633 7.74404 33.4236 7.21171 32.7221 7.21171H32.6642H32.6064H32.5485H32.4907H32.4328H32.375H32.3171H32.2592H32.2014H32.1435H32.0857H32.0278H31.97H31.9121H31.8543H31.7964H31.7386H31.6807H31.6228H31.565H31.5071H31.4493H31.3914H31.3336H31.2757H31.2179H31.16H31.1022H31.0443H30.9864H30.9286H30.8707H30.8129H30.755H30.6972H30.6393H30.5815H30.5236H30.4658H30.4079H30.35H30.2922H30.2343H30.1765H30.1186H30.0608H30.0029H29.9451H29.8872H29.8294H29.7715H29.7136H29.6558H29.5979H29.5401H29.4822H29.4244H29.3665H29.3087H29.2508H29.193H29.1351H29.0772H29.0194H28.9615H28.9037H28.8458H28.788H28.7301H28.6723H28.6144H28.5566H28.4987H28.4408H28.383H28.3251H28.2673H28.2094H28.1516H28.0937H28.0359H27.978H27.9202H27.8623H27.8044H27.7466H27.6887H27.6309H27.573H27.5152H27.4573H27.3995H27.3416H27.2838H27.2259H27.168H27.1102H27.0523H26.9945H26.9366H26.8788H26.8209H26.7631H26.7052H26.6474H26.5895H26.5316H26.4738H26.4159H26.3581H26.3002H26.2424H26.1845H26.1267H26.0688H26.011H25.9531H25.8952H25.8374H25.7795H25.7217H25.6638H25.606H25.5481H25.4903H25.4324H25.3746H25.3167H25.2588H25.201H25.1431H25.0853H25.0274H24.9696H24.9117H24.8539H24.796H24.7382H24.6803H24.6224H24.5646H24.5067H24.4489H24.391H24.3332H24.2753H24.2175H24.1596H24.1018H24.0439H23.986H23.9282H23.8703H23.8125H23.7546H23.6968H23.6389H23.5811H23.5232H23.4654H23.4075H23.3496H23.2918H23.2339H23.1761H23.1182H23.0604H23.0025H22.9447H22.8868H22.829H22.7711H22.7132H22.6554H22.5975H22.5397H22.4818H22.424H22.3661H22.3083H22.2504H22.1926H22.1347H22.0768H22.019H21.9611H21.9033H21.8454H21.7876H21.7297H21.6719H21.614H21.5562H21.4983H21.4404H21.3826H21.3247H21.2669H21.209H21.1512H21.0933H21.0355H20.9776H20.9198H20.8619H20.804H20.7462H20.6883H20.6305H20.5726H20.5148H20.4569H20.3991H20.3412H20.2833H20.2255H20.1676H20.1098H20.0519H19.9941H19.9362H19.8784H19.8205H19.7627H19.7048H19.647H19.5891H19.5312H19.4734H19.4155H19.3577H19.2998H19.242H19.1841H19.1263H19.0684H19.0106H18.9527H18.8948H18.837H18.7791H18.7213H18.6634H18.6056H18.5477H18.4899H18.432H18.3742H18.3163H18.2584H18.2006H18.1427H18.0849H18.027H17.9692H17.9113H17.8535H17.7956H17.7378H17.6799H17.622H17.5642H17.5063H17.4485H17.3906H17.3328H17.2749H17.2171H17.1592H17.1014H17.0435H16.9856H16.9278H16.8699H16.8121H16.7542H16.6964H16.6385H16.5807H16.5228H16.465H16.4071H16.3492H16.2914H16.2335H16.1757H16.1178H16.06H16.0021H15.9443H15.8864H15.8286H15.7707H15.7128H15.655H15.5971H15.5393H15.4814H15.4236H15.3657H15.3079H15.25H15.1922H15.1343H15.0764H15.0186H14.9607H14.9029H14.845H14.7872H14.7293H14.6715H14.6136H14.5557H14.4979H14.44H14.3822H14.3243H14.2665H14.2086H14.1508H14.0929H14.0351H13.9772H13.9193H13.8615H13.8036H13.7458H13.6879H13.6301H13.5722H13.5144H13.4565H13.3987H13.3408H13.2829H13.2251H13.1672H13.1094H13.0515H12.9937H12.9358H12.878H12.8201H12.7623H12.7044H12.6466H12.5887H12.5308H12.473H12.4151H12.3573H12.2994H12.2416H12.1837H12.1259H12.068H12.0101H11.9523H11.8944H11.8366H11.7787H11.7209H11.663H11.6052H11.5473H11.4895H11.4316H11.3737H11.3159H11.258H11.2002H11.1423H11.0845H11.0266H10.9688H10.9109H10.8531H10.7952H10.7373H10.6795H10.6216H10.5638H10.5059H10.4481H10.3902H10.3324H10.2745H10.2167H10.1588H10.1009H10.0431H9.98524H9.92739H9.86953H9.81168H9.75382H9.69597H9.63811H9.58026H9.5224H9.46455H9.4067H9.34884H9.29099H9.23313H9.17528H9.11742H9.05957H9.00171H8.94386H8.886H8.82815H8.7703H8.71244H8.65459H8.59673H8.53888H8.48102H8.42317H8.36531H8.30746H8.2496H8.19175H8.13389H8.07604H8.01819H7.96033H7.90248H7.84462H7.78677H7.72891H7.67106H7.6132H7.55535H7.49749H7.43964H7.38179H7.32393H7.26608H7.20822H7.15037H7.09251H7.03466H6.9768H6.91895H6.86109H6.80324H6.74539H6.68753H6.62968H6.57182H6.51397H6.45611H6.39826H6.3404H6.28255H6.22469H6.16684H6.10899H6.05113H5.99328H5.93542H5.87757H5.81971H5.76186H5.704H5.64615H5.58829H5.53044H5.47259H5.41473H5.35688H5.29902H5.24117H5.18331H5.12546H5.0676H5.00975H4.95189H4.89404H4.83619H4.77833H4.72048H4.66262H4.60477H4.54691H4.48906H4.4312H4.37335H4.31549H4.25764H4.19979H4.14193H4.08408H4.02622H3.96837H3.91051H3.85266H3.7948H3.73695H3.67909H3.62124H3.56339H3.50553H3.44768H3.38982H3.33197H3.27411H3.21626H3.1584H3.10055C2.39899 7.21171 1.85935 7.74404 1.85935 8.44718V29.4915C1.85935 30.194 2.39832 30.7327 3.10055 30.7327H6.27183L6.27221 30.7327C6.75817 30.7309 7.1534 31.1238 7.15437 31.6097V36.9332V37.1578L7.32126 37.0076L14.0475 30.9541C14.0476 30.954 14.0478 30.9539 14.0479 30.9538C14.2087 30.8113 14.4162 30.7327 14.631 30.7327ZM6.45211 19.0315C6.45211 17.3886 7.80102 16.0309 9.4431 16.0309C11.0856 16.0309 12.4437 17.389 12.4437 19.0315C12.4437 20.6736 11.086 22.0225 9.4431 22.0225C7.80063 22.0225 6.45211 20.674 6.45211 19.0315ZM14.9184 19.0315C14.9184 17.3887 16.2692 16.0309 17.9113 16.0309C19.5535 16.0309 20.9042 17.3887 20.9042 19.0315C20.9042 20.6739 19.5539 22.0225 17.9113 22.0225C16.2688 22.0225 14.9184 20.6739 14.9184 19.0315ZM23.379 19.0315C23.379 17.389 24.737 16.0309 26.3795 16.0309C28.0216 16.0309 29.3705 17.3886 29.3705 19.0315C29.3705 20.674 28.022 22.0225 26.3795 22.0225C24.7366 22.0225 23.379 20.6736 23.379 19.0315ZM10.6843 19.0315C10.6843 18.3365 10.1383 17.7884 9.4431 17.7884C8.74707 17.7884 8.20955 18.3374 8.20955 19.0315C8.20955 19.7267 8.74817 20.265 9.4431 20.265C10.1372 20.265 10.6843 19.7276 10.6843 19.0315ZM19.1525 19.0315C19.1525 18.3365 18.6065 17.7884 17.9113 17.7884C17.2153 17.7884 16.6778 18.3374 16.6778 19.0315C16.6778 19.7267 17.2164 20.265 17.9113 20.265C18.6054 20.265 19.1525 19.7276 19.1525 19.0315ZM27.6131 19.0315C27.6131 18.3374 27.0756 17.7884 26.3795 17.7884C25.6846 17.7884 25.1364 18.3363 25.1364 19.0315C25.1364 19.7278 25.6857 20.265 26.3795 20.265C27.0745 20.265 27.6131 19.7267 27.6131 19.0315Z" fill="#FF7300" stroke="white" stroke-width="0.2"/>
</svg>
