<svg width="22" height="22" viewBox="0 0 22 22" fill="none" xmlns="http://www.w3.org/2000/svg">
<g id="Shape">
<path fill-rule="evenodd" clip-rule="evenodd" d="M12 7C12 6.44772 11.5523 6 11 6C10.4477 6 10 6.44772 10 7V10H7C6.44772 10 6 10.4477 6 11C6 11.5523 6.44772 12 7 12H10V15C10 15.5523 10.4477 16 11 16C11.5523 16 12 15.5523 12 15V12H15C15.5523 12 16 11.5523 16 11C16 10.4477 15.5523 10 15 10H12V7ZM11 1C5.48 1 1 5.48 1 11C1 16.52 5.48 21 11 21C16.52 21 21 16.52 21 11C21 5.48 16.52 1 11 1ZM11 19C6.59 19 3 15.41 3 11C3 6.59 6.59 3 11 3C15.41 3 19 6.59 19 11C19 15.41 15.41 19 11 19Z" fill="#3A3029"/>
<path d="M10 10V10.35H10.35V10H10ZM10 12H10.35V11.65H10V12ZM12 12V11.65H11.65V12H12ZM12 10H11.65V10.35H12V10ZM12.35 7C12.35 6.25442 11.7456 5.65 11 5.65V6.35C11.359 6.35 11.65 6.64102 11.65 7H12.35ZM11 5.65C10.2544 5.65 9.65 6.25442 9.65 7H10.35C10.35 6.64102 10.641 6.35 11 6.35V5.65ZM9.65 7V10H10.35V7H9.65ZM10 9.65H7V10.35H10V9.65ZM7 9.65C6.25442 9.65 5.65 10.2544 5.65 11H6.35C6.35 10.641 6.64102 10.35 7 10.35V9.65ZM5.65 11C5.65 11.7456 6.25442 12.35 7 12.35V11.65C6.64102 11.65 6.35 11.359 6.35 11H5.65ZM7 12.35H10V11.65H7V12.35ZM9.65 12V15H10.35V12H9.65ZM9.65 15C9.65 15.7456 10.2544 16.35 11 16.35V15.65C10.641 15.65 10.35 15.359 10.35 15H9.65ZM11 16.35C11.7456 16.35 12.35 15.7456 12.35 15H11.65C11.65 15.359 11.359 15.65 11 15.65V16.35ZM12.35 15V12H11.65V15H12.35ZM12 12.35H15V11.65H12V12.35ZM15 12.35C15.7456 12.35 16.35 11.7456 16.35 11H15.65C15.65 11.359 15.359 11.65 15 11.65V12.35ZM16.35 11C16.35 10.2544 15.7456 9.65 15 9.65V10.35C15.359 10.35 15.65 10.641 15.65 11H16.35ZM15 9.65H12V10.35H15V9.65ZM12.35 10V7H11.65V10H12.35ZM11 0.65C5.2867 0.65 0.65 5.2867 0.65 11H1.35C1.35 5.6733 5.6733 1.35 11 1.35V0.65ZM0.65 11C0.65 16.7133 5.2867 21.35 11 21.35V20.65C5.6733 20.65 1.35 16.3267 1.35 11H0.65ZM11 21.35C16.7133 21.35 21.35 16.7133 21.35 11H20.65C20.65 16.3267 16.3267 20.65 11 20.65V21.35ZM21.35 11C21.35 5.2867 16.7133 0.65 11 0.65V1.35C16.3267 1.35 20.65 5.6733 20.65 11H21.35ZM11 18.65C6.7833 18.65 3.35 15.2167 3.35 11H2.65C2.65 15.6033 6.3967 19.35 11 19.35V18.65ZM3.35 11C3.35 6.7833 6.7833 3.35 11 3.35V2.65C6.3967 2.65 2.65 6.3967 2.65 11H3.35ZM11 3.35C15.2167 3.35 18.65 6.7833 18.65 11H19.35C19.35 6.3967 15.6033 2.65 11 2.65V3.35ZM18.65 11C18.65 15.2167 15.2167 18.65 11 18.65V19.35C15.6033 19.35 19.35 15.6033 19.35 11H18.65Z" fill="#FAF7F6"/>
</g>
</svg>
