<svg xmlns="http://www.w3.org/2000/svg" width="32" height="32" fill="none" viewBox="0 0 32 32">
    <path fill="#FF7300" d="M28.116 26.71H24.34V3.574h-2.992V2.172c0-.21-.107-.42-.25-.526-.177-.14-.391-.175-.57-.14L8.739 3.609c-.356.07-.57.35-.57.701v22.435H4.712c-.391 0-.712.316-.712.701 0 .386.32.701.712.701h6.626l9.226 1.648h.143c.178 0 .32-.07.463-.175.178-.14.25-.316.25-.526v-.947h6.768c.391 0 .712-.315.712-.7 0-.386-.392-.737-.784-.737zm-8.193 1.507L9.557 26.36V4.87l10.366-1.858v25.204zm2.992-1.507h-1.567V4.976h1.567V26.71zm-4.844-9.57c.356 0 .641-.456.641-1.016 0-.561-.285-1.017-.641-1.017-.356 0-.641.456-.641 1.017 0 .56.285 1.016.64 1.016z"/>
</svg>
