<svg xmlns="http://www.w3.org/2000/svg" width="32" height="32" fill="none" viewBox="0 0 32 32">
    <path fill="#FF7300" stroke="#FF7300" stroke-width=".5" d="M27.4 4H4.6c-.331 0-.6.269-.6.6v22.8c0 .331.269.6.6.6h22.8c.331 0 .6-.269.6-.6V4.6c0-.331-.269-.6-.6-.6zm-.6 16.8h-3.3V5.2h3.3v15.6zM22.3 10H19V5.2h3.3V10zm-4.5 10.8h-3.6V5.2h3.6v15.6zM13 10H9.7V5.2H13V10zm-3.3 1.2H13v15.6H9.7V11.2zM14.2 22h3.6v4.8h-3.6V22zM19 11.2h3.3v15.6H19V11.2zm-10.5-6v15.6H5.2V5.2h3.3zM5.2 22h3.3v4.8H5.2V22zm18.3 4.8V22h3.3v4.8h-3.3z"/>
</svg>
