<svg width="32" height="32" viewBox="0 0 32 32" fill="none" xmlns="http://www.w3.org/2000/svg">
<path d="M26.5367 8.79429L26.5367 8.79407C26.5301 7.24292 25.9097 5.75745 24.8111 4.66237C23.7125 3.56728 22.225 2.95164 20.6739 2.95H20.6738L11.3262 2.95L11.3261 2.95C9.77281 2.95165 8.28349 3.56901 7.18454 4.66679C6.08558 5.76457 5.46664 7.25324 5.46333 8.80656V8.80667V11.2399C4.77771 11.3494 4.15119 11.6946 3.69227 12.2169C3.2238 12.7499 2.96064 13.4325 2.95001 14.1421H2.95V14.1429V25.2857C2.95 25.4632 3.02049 25.6333 3.14596 25.7588C3.27143 25.8843 3.44161 25.9548 3.61905 25.9548H5.46333V28.381C5.46333 28.5584 5.53382 28.7286 5.65929 28.854C5.78476 28.9795 5.95494 29.05 6.13238 29.05H8.57095C8.72826 29.0528 8.88153 29 9.0038 28.901C9.12618 28.8018 9.20967 28.6627 9.23957 28.5081L9.23961 28.5078L9.72098 25.9548H22.2789L22.7604 28.5325L22.7603 28.5325L22.7609 28.5348C22.7962 28.6845 22.882 28.8175 23.0038 28.9113C23.1255 29.005 23.2757 29.054 23.4293 29.05H25.849C26.0265 29.05 26.1967 28.9795 26.3221 28.854C26.4476 28.7286 26.5181 28.5584 26.5181 28.381V25.9548H28.381C28.5584 25.9548 28.7286 25.8843 28.854 25.7588C28.9795 25.6333 29.05 25.4632 29.05 25.2857L29.05 14.1429L29.05 14.1423C29.0423 13.4306 28.7805 12.745 28.3118 12.2093C27.8526 11.6845 27.2244 11.3374 26.5367 11.2275L26.5367 8.79429ZM23.069 14.1429V15.711C22.7281 15.5306 22.3485 15.434 21.962 15.43H21.9614L10.0448 15.43L10.0442 15.43C9.65767 15.434 9.27811 15.5306 8.93714 15.711V14.1429L8.93714 14.1427C8.93465 13.4959 8.72209 12.8674 8.33148 12.3519C7.94847 11.8464 7.41462 11.4763 6.80762 11.2949V8.78207C6.81574 7.58846 7.29517 6.44641 8.14149 5.60468C8.98785 4.76291 10.1326 4.28968 11.3263 4.2881H20.6738C21.8728 4.28809 23.0228 4.76397 23.8711 5.6112C24.7195 6.45844 25.1969 7.60775 25.1986 8.80673V11.3197C24.5957 11.4998 24.0648 11.8661 23.6822 12.3666C23.292 12.877 23.077 13.4998 23.069 14.1422V14.1429ZM8.9338 18.7289L8.9 18.756V17.9315C8.90161 17.6372 9.01965 17.3555 9.22831 17.1479C9.43702 16.9403 9.71943 16.8238 10.0138 16.8238H21.9614C22.2568 16.8238 22.5401 16.9412 22.749 17.15C22.9579 17.3589 23.0752 17.6422 23.0752 17.9376V18.8662C23.0752 19.1606 22.9587 19.443 22.7511 19.6517C22.5435 19.8604 22.2617 19.9784 21.9674 19.98H10.0448C9.89595 19.9801 9.74865 19.9503 9.61155 19.8925C9.47445 19.8347 9.35032 19.75 9.2465 19.6434C9.14268 19.5368 9.06126 19.4105 9.00706 19.2719C8.95286 19.1333 8.92698 18.9853 8.93094 18.8366L8.9338 18.7289ZM8.35568 25.9548L8.00425 27.7119H6.80143V25.9548H8.35568ZM25.1986 27.7119H23.9958L23.6443 25.9548H25.1986V27.7119ZM27.7119 24.6167H4.2881V14.1429C4.2881 13.7046 4.46218 13.2843 4.77207 12.9744C5.08195 12.6646 5.50224 12.4905 5.94048 12.4905C6.37872 12.4905 6.799 12.6646 7.10889 12.9744C7.41877 13.2843 7.59286 13.7046 7.59286 14.1429V20.6181C7.59286 20.7955 7.66335 20.9657 7.78882 21.0912C7.91429 21.2167 8.08446 21.2871 8.2619 21.2871H23.7381C23.9155 21.2871 24.0857 21.2167 24.2112 21.0912C24.3367 20.9657 24.4071 20.7955 24.4071 20.6181V14.1429C24.4071 13.7046 24.5812 13.2843 24.8911 12.9744C25.201 12.6646 25.6213 12.4905 26.0595 12.4905C26.4978 12.4905 26.9181 12.6646 27.2279 12.9744C27.5378 13.2843 27.7119 13.7046 27.7119 14.1429V24.6167Z" fill="#FF7300" stroke="#FF7300" stroke-width="0.1"/>
</svg>
