<svg xmlns="http://www.w3.org/2000/svg" width="32" height="32" fill="none" viewBox="0 0 32 32">
    <path fill="#FF7300" stroke="#FF7300" stroke-width=".2" d="M25.273 2.578H6.727C5.223 2.578 4 3.803 4 5.31v20.758c0 1.505 1.223 2.73 2.727 2.73h18.546c1.503 0 2.727-1.225 2.727-2.73V5.309c0-1.506-1.224-2.73-2.727-2.73zm1.636 23.488c0 .904-.734 1.64-1.636 1.64H6.727c-.902 0-1.636-.736-1.636-1.64V10.229h21.818v15.839zm0-16.93H5.091V5.308c0-.903.734-1.638 1.636-1.638h18.546c.902 0 1.636.735 1.636 1.638v3.826z"/>
    <path fill="#FF7300" stroke="#FF7300" stroke-width=".2" d="M7.818 21.697h1.643c2.96 7.131 13.63 4.996 13.63-2.732 0-7.724-10.668-9.866-13.63-2.73H7.818c-.301 0-.545.244-.545.546v4.37c0 .301.244.546.545.546zM22 18.965c0 6.291-8.49 8.328-11.34 2.732h1.27c2.707 4.037 8.98 2.095 8.98-2.732 0-4.822-6.27-6.773-8.98-2.73h-1.27c2.855-5.609 11.34-3.55 11.34 2.73zm-8.724-2.675c2.4-2.443 6.542-.723 6.542 2.675 0 3.392-4.139 5.123-6.543 2.676 2.871-.583 2.905-4.755 0-5.351zm-4.912 1.037h4.363c.903 0 1.637.735 1.637 1.638 0 .91-.733 1.64-1.637 1.64H8.364v-3.278zM7.817 4.765c-2.164 0-2.165 3.278 0 3.278 2.166 0 2.163-3.278 0-3.278zm-.545 1.64c0-.724 1.09-.723 1.09-.001 0 .301-1.09.723-1.09 0zM12.18 4.765c-2.164 0-2.164 3.278 0 3.278 2.167 0 2.164-3.278 0-3.278zm0 2.185c-.721 0-.72-1.092 0-1.092.723 0 .722 1.092 0 1.092zM16.544 4.765c-2.164 0-2.165 3.278 0 3.278 2.166 0 2.164-3.278 0-3.278zm0 2.185c-.721 0-.721-1.092 0-1.092.722 0 .722 1.092 0 1.092z"/>
</svg>
