<svg xmlns="http://www.w3.org/2000/svg" width="32" height="32" fill="none" viewBox="0 0 32 32">
    <path fill="#FF7300" d="M19.634 12.266l5.549 4.756c.58.497.229 1.449-.536 1.449h-4.964c.015.136.023.273.023.411 0 2.047-1.66 3.706-3.706 3.706-2.047 0-3.706-1.659-3.706-3.706 0-.138.008-.276.023-.411H7.353c-.765 0-1.117-.952-.536-1.45l5.549-4.755.768-3.84c.077-.384.415-.661.807-.661h1.236V3.647H2.824c-.455 0-.824-.369-.824-.823C2 2.369 2.369 2 2.824 2h26.352c.455 0 .824.369.824.824 0 .454-.369.823-.823.823H16.823v4.118h1.236c.392 0 .73.277.807.662l.768 3.839zm-5.693 6.616c0 1.137.922 2.06 2.059 2.06s2.059-.923 2.059-2.06c0-.14-.014-.277-.041-.411h-4.036c-.027.134-.04.271-.04.411zm.181-7h3.756l-.494-2.47h-2.768l-.494 2.47zM9.58 16.823h12.842l-3.843-3.294h-5.156L9.58 16.823zm5.598 8.236c0-.455.368-.824.823-.824.455 0 .823.369.823.824v4.117c0 .455-.368.824-.823.824-.455 0-.823-.369-.823-.823v-4.118zm5.144-.281c-.3-.343-.264-.863.078-1.162.342-.3.862-.265 1.162.077l2.882 3.294c.3.342.265.863-.077 1.162-.343.3-.863.265-1.162-.077l-2.883-3.294zm-9.882-1.085c.3-.342.82-.377 1.162-.078.342.3.377.82.078 1.163l-2.883 3.294c-.3.342-.82.377-1.162.077-.342-.3-.377-.82-.077-1.162l2.882-3.294z"/>
</svg>
