<svg xmlns="http://www.w3.org/2000/svg" width="32" height="32" fill="none" viewBox="0 0 32 32">
    <path fill="#59D929" stroke="#fff" stroke-width=".3" d="M18.01 9.246v.13l.13.019c4.552.633 8.049 4.525 8.049 9.23 0 .65-.513 1.137-1.137 1.137H8.697c-.622 0-1.137-.515-1.137-1.137 0-4.736 3.496-8.597 8.049-9.23l-.02-.149h.15V5.235H3.305c-.057 0-.094-.019-.116-.04-.021-.022-.04-.059-.04-.117V3.086c0-.058.019-.094.04-.116.022-.022.059-.04.116-.04h13.569c.621 0 1.136.515 1.136 1.137v5.18zm5.633 8.18h.182l-.034-.178c-.626-3.226-3.474-5.7-6.916-5.7-3.413 0-6.26 2.475-6.886 5.7l-.035.178h13.689zM8.857 27.375h0l.005-.01c.017-.033.051-.055.1-.055.048 0 .099.023.13.07.228.364.561.94.837 1.509.139.284.261.564.35.812.088.252.137.459.137.6 0 .807-.638 1.444-1.443 1.444s-1.443-.637-1.443-1.443c0-.134.048-.334.138-.583.087-.245.21-.523.349-.808.277-.569.611-1.155.84-1.536zM14.351 27.365l.004.007.003.006c.228.364.562.942.839 1.51.138.285.261.565.349.813.09.252.137.459.137.6 0 .807-.637 1.444-1.442 1.444-.806 0-1.443-.637-1.443-1.443 0-.134.048-.334.137-.583.088-.245.21-.523.35-.808.275-.567.609-1.151.837-1.532.032-.046.082-.069.13-.069s.083.022.1.055zM19.423 27.375h0l.005-.01c.017-.033.051-.055.1-.055.048 0 .099.023.13.07.228.364.561.94.837 1.509.139.284.262.564.35.812.089.252.137.459.137.6 0 .807-.637 1.444-1.443 1.444-.805 0-1.443-.637-1.443-1.443 0-.134.048-.334.138-.583.088-.245.21-.523.349-.808.277-.569.611-1.155.84-1.536zM24.691 27.375h0l.006-.01c.016-.033.05-.055.099-.055.048 0 .099.023.13.07.228.364.561.948.838 1.52.138.286.26.567.349.815.09.251.137.453.137.587 0 .806-.637 1.443-1.442 1.443-.806 0-1.443-.637-1.443-1.443 0-.134.048-.334.137-.583.088-.245.21-.523.35-.808.276-.569.61-1.155.84-1.536zM11.49 21.981h.001l.005-.01c.017-.033.051-.055.1-.055.048 0 .099.023.13.07.228.364.561.94.837 1.508.139.285.261.565.35.813.088.252.137.458.137.6 0 .778-.64 1.444-1.443 1.444-.805 0-1.443-.637-1.443-1.444 0-.133.048-.333.138-.582.088-.245.21-.523.349-.808.277-.569.611-1.155.84-1.536zM16.758 21.981h0l.006-.01c.016-.033.05-.055.1-.055.048 0 .098.023.13.07.227.364.56.94.837 1.508.138.285.261.565.349.813.09.252.137.458.137.6 0 .778-.639 1.444-1.442 1.444-.806 0-1.443-.637-1.443-1.444 0-.133.048-.333.137-.582.088-.245.21-.523.35-.808.276-.569.61-1.155.84-1.536zM22.057 21.981h0l.005-.01c.017-.033.051-.055.1-.055.048 0 .099.023.13.07.228.364.561.94.837 1.508.139.285.262.565.35.813.089.252.137.458.137.6 0 .778-.64 1.444-1.443 1.444-.805 0-1.442-.637-1.442-1.444 0-.133.047-.333.137-.582.088-.245.21-.523.349-.808.277-.569.611-1.155.84-1.536z"/>
</svg>
