<svg xmlns="http://www.w3.org/2000/svg" width="32" height="32" fill="none" viewBox="0 0 32 32">
    <path fill="#FF7300" d="M27.226 4H4.774C4.347 4 4 4.347 4 4.774v22.452c0 .427.347.774.774.774h22.452c.427 0 .774-.347.774-.774V4.774c0-.427-.347-.774-.774-.774zm-5.613 16.839h-4.839v-4.065h9.678v4.065h-4.84zm-11.226 0H5.548v-4.065h9.678v4.065h-4.839zM16 11.16h4.839v4.065H11.16V11.16H16zm10.452 0v4.065h-4.065V11.16h4.065zm-16.84 4.065H5.549V11.16h4.065v4.065zm16.84-5.613h-9.678V5.548h9.678v4.065zM5.548 5.548h9.678v4.065H5.548V5.548zm0 16.84h4.065v4.064H5.548v-4.065zm5.613 0h9.678v4.064H11.16v-4.065zm15.29 4.064h-4.064v-4.065h4.065v4.065z"/>
</svg>
