<svg width="18" height="18" viewBox="0 0 18 18" fill="none" xmlns="http://www.w3.org/2000/svg">
<path d="M17.0082 0H0.991754C0.445277 0 0 0.44511 0 0.991383V17.0019C0 17.5481 0.445277 17.9933 0.991754 17.9933H9.61394V11.0266H7.26612V8.30873H9.61394V6.30573C9.61394 3.97902 11.0375 2.71787 13.1087 2.71787C14.1005 2.71787 14.9573 2.79206 15.2069 2.82578V5.25365H13.7699C12.6432 5.25365 12.4205 5.78644 12.4205 6.5755V8.30873H15.1124L14.7616 11.0266H12.4205V18H17.0082C17.5547 18 18 17.5549 18 17.0086V0.991383C18 0.438366 17.5615 0 17.0082 0Z" fill="white"/>
</svg>
