<svg width="18" height="18" viewBox="0 0 18 18" fill="none" xmlns="http://www.w3.org/2000/svg">
<path fill-rule="evenodd" clip-rule="evenodd" d="M5.3474 0H12.6026C15.5511 0 17.95 2.39883 17.95 5.3474V12.6026C17.95 15.5512 15.5512 17.95 12.6026 17.95H5.3474C2.39883 17.95 0 15.5512 0 12.6026V5.3474C0 2.39883 2.39883 0 5.3474 0ZM12.6025 16.1447C14.5585 16.1447 16.1441 14.559 16.1441 12.603V5.34782C16.1441 3.39182 14.5585 1.80619 12.6025 1.80619H5.34731C3.39133 1.80619 1.80567 3.39182 1.80567 5.34782V12.603C1.80567 14.559 3.39133 16.1447 5.34731 16.1447H12.6025Z" fill="white"/>
<path fill-rule="evenodd" clip-rule="evenodd" d="M4.33325 8.97463C4.33325 6.41478 6.41585 4.33215 8.97571 4.33215C11.5356 4.33215 13.6182 6.41475 13.6182 8.97463C13.6182 11.5345 11.5356 13.6171 8.97571 13.6171C6.41585 13.6171 4.33325 11.5345 4.33325 8.97463ZM6.14015 8.9747C6.14015 10.5414 7.41019 11.8114 8.97689 11.8114C10.5436 11.8114 11.8136 10.5414 11.8136 8.9747C11.8136 7.408 10.5436 6.13796 8.97689 6.13796C7.41022 6.13796 6.14015 7.408 6.14015 8.9747Z" fill="white"/>
<circle cx="13.627" cy="4.36751" r="1.11244" fill="white"/>
</svg>
