<svg width="114" height="37" viewBox="0 0 114 37" fill="none" xmlns="http://www.w3.org/2000/svg">
<g clip-path="url(#clip0_255_1802)">
<path d="M18.806 37C29.1923 37 37.6121 28.7173 37.6121 18.5C37.6121 8.28273 29.1923 0 18.806 0C8.41974 0 0 8.28273 0 18.5C0 28.7173 8.41974 37 18.806 37Z" fill="#FF7300"/>
<path d="M28.6849 15.5714L21.5563 8.82062V12.3705L26.8788 17.4109C27.1045 17.6289 27.2836 17.8892 27.4055 18.1763C27.5274 18.4635 27.5896 18.7717 27.5884 19.0829V24.8877C27.5875 25.3703 27.392 25.8329 27.0447 26.1738C26.6975 26.5148 26.2269 26.7063 25.7362 26.7063H21.5386V29.2614H25.7362C26.9157 29.2614 28.0469 28.8007 28.8813 27.9806C29.7156 27.1604 30.1849 26.048 30.1858 24.8877V19.0829C30.1848 18.4289 30.0516 17.7817 29.7939 17.1788C29.5362 16.576 29.1592 16.0296 28.6849 15.5714ZM10.9434 14.3776C11.661 14.1759 12.404 14.0749 13.1504 14.0774C13.7156 14.0757 14.2794 14.133 14.8323 14.2484L16.8122 12.3705V8.82062L10.9434 14.3776Z" fill="white"/>
<path d="M19.1783 7.68622C18.8348 7.68713 18.5056 7.82154 18.2623 8.06018C18.0191 8.29881 17.8815 8.62233 17.8796 8.96027V16.6954C17.5507 16.4175 17.1941 16.1731 16.8151 15.9658C15.9342 15.472 14.9548 15.1719 13.9446 15.0862C13.7317 15.0653 13.5046 15.0548 13.281 15.0548C11.7115 15.0514 10.1843 15.5555 8.93437 16.4894C8.05026 17.1538 7.33407 18.0102 6.84169 18.9916C6.3493 19.9731 6.09403 21.0532 6.09573 22.1476C6.09329 23.0797 6.27825 24.003 6.63997 24.8644C7.0017 25.7259 7.53303 26.5084 8.2034 27.1671C8.65623 27.6127 9.16687 27.9977 9.72209 28.312C10.8082 28.9262 12.0389 29.2499 13.2917 29.2509H20.4983V8.96027C20.4974 8.79115 20.4624 8.62389 20.3955 8.46813C20.3285 8.31237 20.2308 8.17119 20.1081 8.05274C19.9854 7.9343 19.8401 7.84093 19.6805 7.77802C19.5209 7.71511 19.3502 7.68391 19.1783 7.68622ZM17.6987 26.4899H13.2917C12.4516 26.4912 11.6288 26.2549 10.9214 25.8092C10.2953 25.4172 9.77976 24.8761 9.42252 24.2361C9.06528 23.5961 8.87785 22.8778 8.87759 22.1476C8.87966 21.4383 9.05751 20.7401 9.39571 20.1137C9.73392 19.4872 10.2223 18.9513 10.8185 18.5523C11.5529 18.0676 12.4179 17.8099 13.3023 17.8123C13.9836 17.8123 14.6556 17.9681 15.2653 18.2674C15.8749 18.5666 16.4055 19.0012 16.8151 19.5367C17.3967 20.2867 17.7109 21.2043 17.7093 22.1476L17.6987 26.4899Z" fill="white"/>
<path d="M54.5865 28.7381C53.3113 28.7561 52.0585 28.408 50.9814 27.7363C49.9183 27.0605 49.0602 26.1151 48.4976 24.9997C47.8895 23.8191 47.5803 22.5114 47.5963 21.188C47.5811 19.8674 47.8852 18.5621 48.4834 17.3798C49.0394 16.26 49.8989 15.313 50.9672 14.6432C52.063 13.9662 53.3352 13.6169 54.6291 13.6379C55.3458 13.6307 56.0567 13.7661 56.719 14.0358C57.3309 14.2781 57.8962 14.6216 58.3903 15.0516C58.8346 15.4386 59.2142 15.8921 59.5151 16.3954L59.4441 14.9155V8.80347H62.8398V28.3088H59.6002V25.9142C59.2768 26.4517 58.8738 26.9388 58.4044 27.3593C57.9111 27.7947 57.3395 28.1357 56.719 28.3646C56.0383 28.6198 55.3149 28.7465 54.5865 28.7381ZM55.2074 25.6489C55.9586 25.6514 56.6957 25.4484 57.3364 25.0625C57.9878 24.6703 58.5217 24.115 58.8835 23.4534C59.2695 22.7594 59.4663 21.979 59.4548 21.188C59.4653 20.4027 59.2685 19.6281 58.8835 18.9401C58.5217 18.2785 57.9878 17.7232 57.3364 17.3309C56.696 16.9441 55.959 16.7398 55.2074 16.741C54.4455 16.7324 53.6957 16.9292 53.0394 17.31C52.389 17.6909 51.8575 18.2403 51.503 18.8982C51.1203 19.6019 50.9261 20.39 50.9388 21.188C50.9287 21.9763 51.1176 22.7547 51.4888 23.4534C51.8382 24.1158 52.3645 24.6721 53.011 25.0625C53.6723 25.4579 54.4337 25.6612 55.2074 25.6489Z" fill="#3A3029"/>
<path d="M76.1643 19.4846C76.1158 18.9505 75.9071 18.4427 75.5647 18.0255C75.1988 17.5639 74.7237 17.1972 74.1808 16.9574C73.6074 16.6953 72.9822 16.5607 72.3499 16.563C71.6288 16.5547 70.9177 16.729 70.2848 17.0691C69.6421 17.423 69.119 17.9545 68.7803 18.598C68.3749 19.3815 68.1783 20.2535 68.209 21.1321C68.1884 21.9832 68.3745 22.8269 68.7519 23.593C69.0764 24.2529 69.5862 24.8076 70.2209 25.1916C70.8453 25.5636 71.5632 25.7559 72.2931 25.7466C72.7988 25.7552 73.3025 25.6809 73.7834 25.5267C74.1926 25.3919 74.5659 25.1689 74.8763 24.874C75.1776 24.5774 75.41 24.2202 75.5576 23.8268H79.2762C79.021 24.7292 78.5639 25.564 77.9385 26.2702C77.2749 27.0308 76.4534 27.6426 75.5292 28.0644C74.5387 28.5187 73.4569 28.7478 72.3641 28.7346C71.0112 28.752 69.6798 28.4004 68.5177 27.7188C67.3895 27.0553 66.4612 26.1084 65.8281 24.9752C65.177 23.8153 64.8421 22.5094 64.8559 21.1845C64.8445 19.8609 65.1793 18.5567 65.8281 17.3972C66.4555 16.2604 67.382 15.3104 68.5107 14.6466C69.6756 13.9659 71.0093 13.6155 72.3641 13.6344C73.6928 13.6142 75.001 13.9574 76.1431 14.6257C77.2396 15.2684 78.1375 16.1928 78.7404 17.2995C79.3586 18.4148 79.6785 19.6663 79.6701 20.9366C79.6708 21.1104 79.6614 21.2841 79.6417 21.4567C79.6239 21.6348 79.6098 21.8407 79.6027 22.0711H67.6448L67.801 19.4811L76.1643 19.4846Z" fill="#3A3029"/>
<path d="M79.8141 26.2318L87.3223 16.8911H80.1937V14.0637H91.9528V16.1581L84.5014 25.4674H92.2899V28.2913H79.8105L79.8141 26.2318Z" fill="#3A3029"/>
<path d="M99.0082 28.7381C97.7727 28.7505 96.5617 28.3992 95.5308 27.7293C94.4814 27.047 93.6353 26.1026 93.079 24.9927C92.4816 23.8114 92.1776 22.5074 92.1919 21.188C92.1782 19.8712 92.4848 18.5703 93.0861 17.3938C93.6436 16.2829 94.4894 15.3364 95.5379 14.6502C96.5609 13.98 97.7649 13.6274 98.994 13.6379C99.7408 13.632 100.483 13.75 101.19 13.987C101.836 14.204 102.437 14.5339 102.965 14.9609C103.478 15.3794 103.901 15.8959 104.206 16.4793V14.0673H107.442V28.3088H104.206V25.9143C103.902 26.4971 103.479 27.0126 102.965 27.4292C102.439 27.8572 101.837 28.1862 101.19 28.3995C100.487 28.6304 99.7496 28.7448 99.0082 28.7381ZM99.8243 25.635C100.584 25.6436 101.332 25.4429 101.982 25.0556C102.63 24.6645 103.16 24.1086 103.514 23.4464C103.894 22.7527 104.088 21.9757 104.079 21.188C104.086 20.4072 103.892 19.6374 103.514 18.9506C103.154 18.289 102.623 17.7327 101.975 17.3379C101.33 16.9422 100.584 16.7352 99.8243 16.741C99.0762 16.7369 98.3408 16.931 97.6953 17.303C97.0472 17.6787 96.515 18.2204 96.1553 18.8703C95.763 19.5808 95.5661 20.3797 95.584 21.188C95.564 22.0088 95.7608 22.8206 96.1553 23.5442C96.5121 24.1949 97.0483 24.7333 97.7024 25.0975C98.3504 25.4543 99.0816 25.6395 99.8243 25.635Z" fill="#3A3029"/>
<path d="M111.869 11.8542C111.477 11.8632 111.089 11.7743 110.741 11.5959C110.435 11.4358 110.182 11.1937 110.01 10.8978C109.839 10.5997 109.753 10.2625 109.758 9.92046C109.753 9.58295 109.84 9.25027 110.01 8.95706C110.182 8.66114 110.435 8.4191 110.741 8.25895C111.089 8.08053 111.477 7.99168 111.869 8.00065C112.267 7.99144 112.661 8.08023 113.015 8.25895C113.326 8.41685 113.583 8.65919 113.757 8.95706C113.925 9.2509 114.012 9.58315 114.009 9.92046C114.014 10.2668 113.927 10.6086 113.757 10.9118C113.585 11.2113 113.327 11.4542 113.015 11.6099C112.659 11.7823 112.266 11.8662 111.869 11.8542ZM110.18 14.0673H113.587V28.3088H110.18V14.0673Z" fill="#3A3029"/>
</g>
<defs>
<clipPath id="clip0_255_1802">
<rect width="114" height="37" fill="white"/>
</clipPath>
</defs>
</svg>
