<svg width="114" height="37" viewBox="0 0 114 37" fill="none" xmlns="http://www.w3.org/2000/svg">
<g clip-path="url(#clip0_255_215)">
<path d="M18.806 37C29.1923 37 37.6121 28.7173 37.6121 18.5C37.6121 8.28273 29.1923 0 18.806 0C8.41974 0 0 8.28273 0 18.5C0 28.7173 8.41974 37 18.806 37Z" fill="#FF7300"/>
<path d="M28.6844 15.5714L21.5558 8.82062V12.3705L26.8783 17.4109C27.104 17.6289 27.2831 17.8892 27.405 18.1763C27.5269 18.4635 27.5891 18.7717 27.588 19.0829V24.8877C27.587 25.3703 27.3915 25.8329 27.0442 26.1738C26.697 26.5148 26.2264 26.7063 25.7357 26.7063H21.5381V29.2614H25.7357C26.9152 29.2614 28.0464 28.8007 28.8808 27.9806C29.7152 27.1604 30.1844 26.048 30.1853 24.8877V19.0829C30.1843 18.4289 30.0511 17.7817 29.7934 17.1788C29.5357 16.576 29.1588 16.0296 28.6844 15.5714ZM10.9429 14.3776C11.6605 14.1759 12.4035 14.0749 13.1499 14.0774C13.7151 14.0757 14.2789 14.133 14.8318 14.2484L16.8117 12.3705V8.82062L10.9429 14.3776Z" fill="white"/>
<path d="M19.1788 7.68622C18.8353 7.68713 18.5061 7.82154 18.2628 8.06018C18.0196 8.29881 17.882 8.62233 17.8801 8.96027V16.6954C17.5512 16.4175 17.1945 16.1731 16.8156 15.9658C15.9346 15.472 14.9553 15.1719 13.9451 15.0862C13.7322 15.0653 13.5051 15.0548 13.2815 15.0548C11.712 15.0514 10.1848 15.5555 8.93486 16.4894C8.05075 17.1538 7.33456 18.0102 6.84217 18.9916C6.34979 19.9731 6.09452 21.0532 6.09622 22.1476C6.09378 23.0797 6.27873 24.003 6.64046 24.8644C7.00218 25.7259 7.53351 26.5084 8.20389 27.1671C8.65672 27.6127 9.16736 27.9977 9.72257 28.312C10.8087 28.9262 12.0394 29.2499 13.2922 29.2509H20.4988V8.96027C20.4979 8.79115 20.4629 8.62389 20.396 8.46813C20.329 8.31237 20.2313 8.17119 20.1086 8.05274C19.9859 7.9343 19.8405 7.84093 19.681 7.77802C19.5214 7.71511 19.3507 7.68391 19.1788 7.68622ZM17.6992 26.4899H13.2922C12.4521 26.4912 11.6293 26.2549 10.9219 25.8092C10.2958 25.4172 9.78025 24.8761 9.42301 24.2361C9.06577 23.5961 8.87833 22.8778 8.87808 22.1476C8.88014 21.4383 9.058 20.7401 9.3962 20.1137C9.73441 19.4872 10.2228 18.9513 10.819 18.5523C11.5534 18.0676 12.4184 17.8099 13.3028 17.8123C13.9841 17.8123 14.6561 17.9681 15.2658 18.2674C15.8754 18.5666 16.406 19.0012 16.8156 19.5367C17.3972 20.2867 17.7114 21.2043 17.7098 22.1476L17.6992 26.4899Z" fill="white"/>
<path d="M54.5872 28.7381C53.3121 28.7561 52.0592 28.408 50.9821 27.7363C49.919 27.0605 49.061 26.1151 48.4983 24.9997C47.8902 23.8191 47.581 22.5114 47.597 21.188C47.5819 19.8674 47.8859 18.5621 48.4841 17.3798C49.0401 16.26 49.8997 15.313 50.9679 14.6432C52.0637 13.9662 53.336 13.6169 54.6298 13.6379C55.3466 13.6307 56.0574 13.7661 56.7197 14.0358C57.3317 14.2781 57.897 14.6216 58.391 15.0516C58.8354 15.4386 59.2149 15.8921 59.5158 16.3954L59.4448 14.9155V8.80347H62.8405V28.3088H59.6009V25.9142C59.2776 26.4517 58.8746 26.9388 58.4052 27.3593C57.9119 27.7947 57.3403 28.1357 56.7197 28.3646C56.039 28.6198 55.3156 28.7465 54.5872 28.7381ZM55.2082 25.6489C55.9594 25.6514 56.6965 25.4484 57.3372 25.0625C57.9885 24.6703 58.5224 24.115 58.8842 23.4534C59.2702 22.7594 59.467 21.979 59.4555 21.188C59.466 20.4027 59.2692 19.6281 58.8842 18.9401C58.5224 18.2785 57.9885 17.7232 57.3372 17.3309C56.6968 16.9441 55.9597 16.7398 55.2082 16.741C54.4463 16.7324 53.6964 16.9292 53.0401 17.31C52.3897 17.6909 51.8582 18.2403 51.5037 18.8982C51.121 19.6019 50.9269 20.39 50.9395 21.188C50.9294 21.9763 51.1184 22.7547 51.4895 23.4534C51.8389 24.1158 52.3652 24.6721 53.0117 25.0625C53.673 25.4579 54.4345 25.6612 55.2082 25.6489Z" fill="white"/>
<path d="M76.1643 19.4846C76.1158 18.9505 75.9071 18.4427 75.5647 18.0255C75.1988 17.5639 74.7237 17.1972 74.1808 16.9574C73.6074 16.6953 72.9822 16.5607 72.3499 16.563C71.6288 16.5547 70.9177 16.729 70.2848 17.0691C69.6421 17.423 69.119 17.9545 68.7803 18.598C68.3749 19.3815 68.1783 20.2535 68.209 21.1321C68.1884 21.9832 68.3745 22.8269 68.7519 23.593C69.0764 24.2529 69.5862 24.8076 70.2209 25.1916C70.8453 25.5636 71.5632 25.7559 72.2931 25.7466C72.7988 25.7552 73.3025 25.6809 73.7834 25.5267C74.1926 25.3919 74.5659 25.1689 74.8763 24.874C75.1776 24.5774 75.41 24.2202 75.5576 23.8268H79.2762C79.021 24.7292 78.5639 25.564 77.9385 26.2702C77.2749 27.0308 76.4534 27.6426 75.5292 28.0644C74.5387 28.5187 73.4569 28.7478 72.3641 28.7346C71.0112 28.752 69.6798 28.4004 68.5177 27.7188C67.3895 27.0553 66.4612 26.1084 65.8281 24.9752C65.177 23.8153 64.8421 22.5094 64.8559 21.1845C64.8445 19.8609 65.1793 18.5567 65.8281 17.3972C66.4555 16.2604 67.382 15.3104 68.5107 14.6466C69.6756 13.9659 71.0093 13.6155 72.3641 13.6344C73.6928 13.6142 75.001 13.9574 76.1431 14.6257C77.2396 15.2684 78.1375 16.1928 78.7404 17.2995C79.3586 18.4148 79.6785 19.6663 79.6701 20.9366C79.6708 21.1104 79.6614 21.2841 79.6417 21.4567C79.6239 21.6348 79.6098 21.8407 79.6027 22.0711H67.6448L67.801 19.4811L76.1643 19.4846Z" fill="white"/>
<path d="M79.8156 26.2318L87.3237 16.8911H80.1952V14.0637H91.9543V16.1581L84.5029 25.4674H92.2914V28.2913H79.812L79.8156 26.2318Z" fill="white"/>
<path d="M99.0084 28.7381C97.773 28.7505 96.562 28.3992 95.5311 27.7293C94.4817 27.047 93.6355 26.1026 93.0792 24.9927C92.4818 23.8114 92.1778 22.5074 92.1921 21.188C92.1784 19.8712 92.485 18.5703 93.0863 17.3938C93.6438 16.2829 94.4896 15.3364 95.5382 14.6502C96.5612 13.98 97.7652 13.6274 98.9942 13.6379C99.7411 13.632 100.484 13.75 101.191 13.987C101.837 14.204 102.438 14.5339 102.965 14.9609C103.479 15.3794 103.901 15.8959 104.207 16.4793V14.0673H107.443V28.3088H104.207V25.9143C103.902 26.4971 103.479 27.0126 102.965 27.4292C102.439 27.8572 101.838 28.1862 101.191 28.3995C100.487 28.6304 99.7499 28.7448 99.0084 28.7381ZM99.8245 25.635C100.585 25.6436 101.332 25.4429 101.982 25.0556C102.631 24.6645 103.16 24.1086 103.515 23.4464C103.894 22.7527 104.088 21.9757 104.079 21.188C104.087 20.4072 103.892 19.6374 103.515 18.9506C103.155 18.289 102.623 17.7327 101.975 17.3379C101.33 16.9422 100.584 16.7352 99.8245 16.741C99.0765 16.7369 98.341 16.931 97.6956 17.303C97.0475 17.6787 96.5152 18.2204 96.1556 18.8703C95.7632 19.5808 95.5663 20.3797 95.5843 21.188C95.5642 22.0088 95.7611 22.8206 96.1556 23.5442C96.5123 24.1949 97.0486 24.7333 97.7026 25.0975C98.3507 25.4543 99.0819 25.6395 99.8245 25.635Z" fill="white"/>
<path d="M111.871 11.8542C111.479 11.8632 111.091 11.7743 110.743 11.5959C110.437 11.4358 110.183 11.1937 110.012 10.8978C109.841 10.5997 109.754 10.2625 109.76 9.92046C109.755 9.58295 109.842 9.25027 110.012 8.95706C110.183 8.66114 110.437 8.4191 110.743 8.25895C111.091 8.08053 111.479 7.99168 111.871 8.00065C112.269 7.99144 112.663 8.08023 113.017 8.25895C113.327 8.41685 113.585 8.65919 113.759 8.95706C113.927 9.2509 114.014 9.58315 114.011 9.92046C114.016 10.2668 113.929 10.6086 113.759 10.9118C113.587 11.2113 113.329 11.4542 113.017 11.6099C112.661 11.7823 112.268 11.8662 111.871 11.8542ZM110.182 14.0673H113.588V28.3088H110.182V14.0673Z" fill="white"/>
</g>
<defs>
<clipPath id="clip0_255_215">
<rect width="114" height="37" fill="white"/>
</clipPath>
</defs>
</svg>
