<svg width="22" height="25" viewBox="0 0 22 25" fill="none" xmlns="http://www.w3.org/2000/svg">
<path d="M22 3.20235C21.9986 2.35311 21.6604 1.53929 21.0599 0.938958C20.4593 0.338629 19.6455 0.000888324 18.7962 0H3.20377C2.35453 0.000925338 1.54071 0.338676 0.940143 0.938958C0.339577 1.53929 0.0013621 2.35311 0 3.20235V20.9783C0.00138804 21.8275 0.3396 22.6414 0.940143 23.2417C1.54071 23.842 2.35453 24.1798 3.20377 24.1807H15.1269C15.2143 24.1811 15.3011 24.1635 15.3816 24.1291C15.4618 24.0958 15.5349 24.0472 15.5965 23.9856L21.8035 17.7786C21.865 17.7169 21.9141 17.644 21.9481 17.5637C21.9818 17.483 21.9994 17.3965 21.9999 17.309L22 3.20235ZM1.32692 20.9783V3.20235C1.32785 2.70475 1.5261 2.22821 1.87796 1.87655C2.22982 1.5249 2.70659 1.32714 3.20399 1.32644H18.7964C19.2938 1.32713 19.7706 1.52493 20.1225 1.87655C20.4744 2.22818 20.6726 2.70471 20.6735 3.20235V16.6457H17.6662C16.8169 16.6466 16.0029 16.9846 15.4026 17.5851C14.8022 18.1859 14.4647 19.0002 14.464 19.8494V22.8539H3.20421C2.70684 22.8532 2.23007 22.6554 1.87818 22.3038C1.52628 21.9522 1.32806 21.4756 1.32714 20.978L1.32692 20.9783ZM19.7342 17.9723L15.7904 21.9161L15.7901 19.8496C15.7904 19.352 15.9882 18.875 16.3398 18.5232C16.6914 18.1711 17.1684 17.973 17.6658 17.9723L19.7342 17.9723Z" fill="#3A3029"/>
<path d="M7 11.625L9.6 15L15 9" stroke="#3A3029" stroke-width="1.5" stroke-linecap="round" stroke-linejoin="round"/>
</svg>
