<svg width="54" height="46" viewBox="0 0 54 46" fill="none" xmlns="http://www.w3.org/2000/svg">
<path d="M6.21986 0H47.4746C49.1864 0 50.7416 0.70025 51.8686 1.82584C52.9957 2.95291 53.6945 4.5081 53.6945 6.21986V39.7801C53.6945 41.4919 52.9942 43.0471 51.8686 44.1742C50.7416 45.3012 49.1864 46 47.4746 46H6.21986C4.5081 46 2.95291 45.2998 1.82584 44.1742C0.69876 43.0471 0 41.4919 0 39.7801V6.21986C0 4.5081 0.70025 2.95291 1.82584 1.82584C2.95291 0.69876 4.5081 0 6.21986 0ZM24.9081 32.5165L29.6279 23.1555C30.0848 22.2502 30.75 21.5277 31.556 21.0325C31.5896 21.0106 31.6247 20.9923 31.6583 20.9755C32.4476 20.5135 33.3549 20.2651 34.3172 20.2651C35.3217 20.2651 36.2641 20.5353 37.0768 21.036L37.0784 21.0325C37.8845 21.5281 38.55 22.2502 39.0065 23.1555L49.0725 43.1165C49.4505 42.9333 49.793 42.688 50.0871 42.3943C50.7588 41.7226 51.1756 40.797 51.1756 39.7793V6.21898C51.1756 5.20118 50.7589 4.27557 50.0871 3.6039C49.4153 2.93224 48.4897 2.51542 47.472 2.51542H6.21726C5.19946 2.51542 4.27385 2.93214 3.60218 3.6039C2.93052 4.27567 2.5137 5.20128 2.5137 6.21898V39.7793C2.5137 40.7971 2.93042 41.7227 3.60218 42.3943C3.89626 42.6884 4.23878 42.9337 4.61678 43.1165L12.7429 27.0017C13.1998 26.0964 13.8649 25.3739 14.671 24.8787C14.7046 24.8568 14.7397 24.8385 14.7733 24.8217C15.5626 24.3597 16.4698 24.1113 17.4322 24.1113C18.4367 24.1113 19.3791 24.3815 20.1918 24.8822L20.1934 24.8787C20.9995 25.3743 21.665 26.0965 22.1215 27.0017L24.9029 32.5162L24.9081 32.5165ZM46.4488 43.4853L36.7671 24.2861C36.527 23.8109 36.1809 23.4328 35.7626 23.1759L35.7662 23.1724L35.7626 23.1708C35.353 22.9189 34.8605 22.783 34.318 22.783C33.8056 22.783 33.3389 22.904 32.9425 23.1306L32.8738 23.1774C32.4571 23.4344 32.111 23.8125 31.8709 24.2877L26.3146 35.3045L30.44 43.4845H46.4488L46.4488 43.4853ZM27.6276 43.4853L23.7978 35.893L23.7846 35.8661L23.783 35.8626L19.8861 28.1344C19.6459 27.6591 19.2999 27.2811 18.8816 27.0241L18.8851 27.0206L18.8816 27.0191C18.4719 26.7672 17.9794 26.6312 17.437 26.6312C16.9246 26.6312 16.4579 26.7523 16.0614 26.9788L15.9927 27.0241C15.576 27.2811 15.23 27.6592 14.9898 28.1344L7.24796 43.4853H27.6279L27.6276 43.4853ZM15.1411 8.41832C16.5353 8.41832 17.7967 8.98422 18.7123 9.89812C19.6261 10.812 20.1921 12.075 20.1921 13.4693C20.1921 14.8635 19.6262 16.125 18.7123 17.0405C17.7984 17.9544 16.5354 18.5203 15.1411 18.5203C13.7469 18.5203 12.4854 17.9544 11.5699 17.0405C10.656 16.1266 10.0901 14.8636 10.0901 13.4693C10.0901 12.0751 10.656 10.812 11.5699 9.89812C12.4838 8.9842 13.7468 8.41832 15.1411 8.41832ZM16.9317 11.6771C16.4748 11.2186 15.8397 10.9346 15.1411 10.9346C14.4408 10.9346 13.8089 11.2186 13.3504 11.6771C12.8919 12.134 12.608 12.769 12.608 13.4677C12.608 14.168 12.8919 14.7998 13.3504 15.2584C13.8089 15.7169 14.4424 16.0008 15.1411 16.0008C15.8413 16.0008 16.4748 15.7169 16.9317 15.2584C17.3902 14.7999 17.6741 14.1664 17.6741 13.4677C17.6741 12.7675 17.3902 12.134 16.9317 11.6771Z" fill="#7F7D7D"/>
</svg>
