<svg width="24" height="24" viewBox="0 0 24 24" fill="none" xmlns="http://www.w3.org/2000/svg">
<path d="M9.71271 10.908C9.92519 10.9085 10.1288 10.9931 10.279 11.1433C10.4297 11.294 10.5145 11.4984 10.5145 11.7115V17.4039H10.5144L10.5146 17.4074C10.522 17.6219 10.4402 17.8299 10.2885 17.9816C10.1368 18.1332 9.92877 18.2151 9.71433 18.2076L9.71433 18.2076H9.71084C9.49775 18.2076 9.2934 18.1228 9.14268 17.9721C8.992 17.8214 8.9074 17.6171 8.9074 17.4039V11.7131C8.91439 11.5019 9.00145 11.3013 9.15108 11.1518L9.15117 11.1517C9.30068 11.002 9.50144 10.915 9.71271 10.908Z" fill="#3A3029" stroke="#FAF7F6" stroke-width="0.2"/>
<path d="M13.4853 17.4074L13.4854 17.4074V17.4039V11.7115C13.4854 11.4984 13.5701 11.294 13.7209 11.1433C13.8711 10.9931 14.0747 10.9085 14.2872 10.908C14.4984 10.915 14.6992 11.002 14.8487 11.1517L14.8488 11.1518C14.9984 11.3013 15.0855 11.5019 15.0925 11.7131V17.404C15.0925 17.6171 15.0079 17.8214 14.8572 17.9721C14.7065 18.1228 14.5021 18.2076 14.2891 18.2076V18.2075L14.2856 18.2077C14.0711 18.2151 13.8631 18.1333 13.7114 17.9816C13.5597 17.8299 13.4779 17.6219 13.4853 17.4074Z" fill="#3A3029" stroke="#FAF7F6" stroke-width="0.2"/>
<path d="M16.99 4.3624V4.4624H17.09H21.0958H21.0958C21.309 4.4624 21.5133 4.547 21.664 4.69768C21.8147 4.8484 21.8995 5.05274 21.8995 5.26584H21.8994L21.8995 5.26932C21.907 5.48378 21.8251 5.69182 21.6735 5.84348C21.5218 5.99516 21.3137 6.07704 21.0993 6.06956L21.096 6.16349V6.0695H21.0958H20.4936H20.3936V6.1695V21.2893C20.3936 21.9817 20.1183 22.6458 19.6287 23.1354C19.1392 23.625 18.4753 23.9 17.7828 23.9H6.21716C5.52474 23.9 4.86084 23.625 4.37125 23.1354C3.88167 22.6458 3.60644 21.9817 3.60644 21.2893L3.60665 6.16951L3.60665 6.0695H3.50665H2.9042V6.06944L2.90071 6.06956C2.68626 6.07704 2.47822 5.99517 2.32655 5.84349C2.17488 5.69181 2.09299 5.48377 2.10047 5.26932L2.10053 5.26933V5.26584C2.10053 5.05275 2.18529 4.8484 2.33602 4.69768C2.4867 4.547 2.69102 4.4624 2.90418 4.4624H6.90997H7.00997V4.3624V2.6154C7.00997 2.00284 7.25331 1.41555 7.6863 0.982362C8.11946 0.549179 8.70696 0.305856 9.31951 0.305856H14.6804C15.293 0.305856 15.8805 0.549203 16.3137 0.982378C16.7467 1.41555 16.99 2.00285 16.99 2.6154V4.3624ZM15.2826 4.46238H15.3826V4.36238V2.61538C15.3826 2.4291 15.3087 2.25048 15.1769 2.11869C15.0453 1.98711 14.8665 1.91295 14.6802 1.91295H9.31925C8.93129 1.91295 8.6168 2.22745 8.6168 2.6154L8.61678 4.36238L8.61678 4.46238H8.71678H15.2826ZM18.7808 21.3893H18.786L18.786 21.2893L18.7857 6.16949L18.7857 6.06949H18.6857H5.31319H5.2132V6.16949V21.2893C5.2132 21.5554 5.31884 21.8106 5.50705 21.9989C5.69522 22.187 5.95041 22.2929 6.21663 22.2929H17.7823C18.0485 22.2929 18.3037 22.187 18.4919 21.9989C18.6564 21.8344 18.7578 21.6187 18.7808 21.3893Z" fill="#3A3029" stroke="#FAF7F6" stroke-width="0.2"/>
</svg>
