<svg width="24" height="24" viewBox="0 0 24 24" fill="none" xmlns="http://www.w3.org/2000/svg">
<path fill-rule="evenodd" clip-rule="evenodd" d="M14.8163 11.7246L12.4637 9.37214C12.2074 9.11592 11.7919 9.11592 11.536 9.37214L9.1832 11.7246C8.92698 11.981 8.92698 12.3964 9.1832 12.6528C9.43957 12.909 9.85494 12.909 10.1113 12.6528L11.3435 11.4205V22.3429C11.3435 22.7054 11.6372 22.9992 11.9998 22.9992C12.3623 22.9992 12.6559 22.7054 12.6559 22.3429V11.4205L13.8882 12.6528C14.0164 12.7809 14.1843 12.845 14.3522 12.845C14.5201 12.845 14.6882 12.7809 14.8162 12.6528C15.0727 12.3964 15.0727 11.981 14.8163 11.7246ZM19.4248 5.07483C21.4078 7.05783 22.5 9.69476 22.5 12.4996C22.5 16.6381 20.0571 20.4035 16.2767 22.0916C15.9458 22.2393 15.5578 22.091 15.4099 21.7598C15.262 21.4289 15.4105 21.0407 15.7412 20.893C19.0495 19.4156 21.1876 16.1212 21.1876 12.4998C21.1877 7.43398 17.0657 3.31252 11.9999 3.31252C6.93416 3.31252 2.8123 7.43398 2.8123 12.5002C2.8123 16.1218 4.95014 19.4162 8.25866 20.8934C8.58952 21.0411 8.73802 21.4293 8.58998 21.7602C8.48134 22.004 8.24197 22.149 7.99083 22.149C7.90151 22.149 7.81033 22.1306 7.72333 22.092C3.94293 20.4037 1.5 16.6385 1.5 12.5C1.5 9.69523 2.59224 7.05842 4.57555 5.07523C6.55854 3.09224 9.19587 2 12.0003 2C14.8048 2 17.4416 3.09153 19.4248 5.07483Z" fill="#FF7300" stroke="#FF7300" stroke-width="0.3"/>
</svg>
