<svg width="66" height="65" viewBox="0 0 66 65" fill="none" xmlns="http://www.w3.org/2000/svg">
<path d="M33.5829 23.1729L33.9364 22.8194L33.5829 23.1729L40.7878 30.3774L40.8651 30.4547C41.4634 31.0531 41.4634 32.0221 40.8648 32.6204L40.8645 32.6207C40.566 32.9195 40.1745 33.0691 39.7822 33.0691C39.3897 33.0691 38.9989 32.9197 38.6991 32.6203L34.8851 28.8063L34.0316 27.9527V29.1599V62.9685C34.0316 63.8147 33.3464 64.5 32.5005 64.5C31.6545 64.5 30.969 63.8145 30.969 62.9685V29.1599V27.9527L30.1154 28.8063L26.3017 32.6204C26.3016 32.6205 26.3016 32.6205 26.3016 32.6206C25.7032 33.2184 24.7341 33.2184 24.1358 32.6206C23.5379 32.0222 23.5379 31.053 24.1357 30.4547C24.1358 30.4547 24.1358 30.4547 24.1359 30.4546L31.4185 23.173L31.4187 23.1727C32.0155 22.5753 32.9849 22.575 33.5829 23.1729ZM55.1311 9.87344L55.1317 9.87299C61.1749 15.9171 64.5024 23.9514 64.5024 32.5001C64.5024 45.1127 57.0569 56.5892 45.5352 61.734C44.7632 62.0787 43.8577 61.7326 43.5126 60.9597L43.5125 60.9595C43.1674 60.1875 43.514 59.2817 44.2855 58.9371C54.7058 54.2837 61.44 43.9074 61.44 32.5005C61.4405 16.5439 48.4575 3.56273 32.501 3.56273C16.5445 3.56273 3.56204 16.5439 3.56204 32.5017C3.56204 43.9095 10.2955 54.2855 20.7166 58.9383C21.4885 59.283 21.8349 60.1888 21.4896 60.9605L21.4893 60.9613C21.2362 61.5293 20.6785 61.8682 20.0914 61.8682C19.8837 61.8682 19.6707 61.8255 19.4663 61.7348C7.94521 56.5891 0.5 45.1136 0.5 32.5013C0.5 23.9521 3.82818 15.9174 9.87344 9.87248L9.87346 9.87247C15.9177 3.8282 23.954 0.5 32.5023 0.5C41.0505 0.5 49.0862 3.82819 55.1311 9.87344Z" fill="#FF7300" stroke="#FAF7F6"/>
</svg>
